HIERARCHY
ROOT root
{
	OFFSET 0.000000 0.000000 0.000000
	CHANNELS 6 Xposition Yposition Zposition Xrotation Yrotation Zrotation
	JOINT spine1
	{
		OFFSET 0.000000 -0.961858 0.006396
		CHANNELS 6 Xposition Yposition Zposition Xrotation Yrotation Zrotation
		JOINT spine2
		{
			OFFSET 0.000000 -0.238221 0.004518
			CHANNELS 6 Xposition Yposition Zposition Xrotation Yrotation Zrotation
			JOINT chest
			{
				OFFSET 0.000000 -0.205591 -0.000153
				CHANNELS 6 Xposition Yposition Zposition Xrotation Yrotation Zrotation
				JOINT l_shoulder
				{
					OFFSET 0.000000 -0.203436 0.011130
					CHANNELS 6 Xposition Yposition Zposition Xrotation Yrotation Zrotation
					JOINT l_arm1
					{
						OFFSET -0.201341 0.039879 -0.023968
						CHANNELS 6 Xposition Yposition Zposition Xrotation Yrotation Zrotation
						JOINT l_arm2
						{
							OFFSET -0.255826 0.019338 0.002834
							CHANNELS 6 Xposition Yposition Zposition Xrotation Yrotation Zrotation
							JOINT l_arm2.001
							{
								OFFSET -0.278303 0.000000 0.000000
								CHANNELS 6 Xposition Yposition Zposition Xrotation Yrotation Zrotation
								JOINT l_arm2.002
								{
									OFFSET -0.097545 -0.027868 -0.000000
									CHANNELS 6 Xposition Yposition Zposition Xrotation Yrotation Zrotation
									JOINT l_arm2.003
									{
										OFFSET -0.073227 0.001151 0.000000
										CHANNELS 6 Xposition Yposition Zposition Xrotation Yrotation Zrotation
										End Site
										{
											OFFSET -0.069050 0.006363 0.000000
										}
									}
								}
								JOINT l_thumb1
								{
									OFFSET -0.069959 0.025989 0.036186
									CHANNELS 6 Xposition Yposition Zposition Xrotation Yrotation Zrotation
									JOINT l_thumb2
									{
										OFFSET -0.016822 0.014415 0.020316
										CHANNELS 6 Xposition Yposition Zposition Xrotation Yrotation Zrotation
										JOINT l_thumb3
										{
											OFFSET -0.030947 0.011068 0.007269
											CHANNELS 6 Xposition Yposition Zposition Xrotation Yrotation Zrotation
											End Site
											{
												OFFSET -0.030806 0.000000 0.004416
											}
										}
									}
								}
							}
						}
					}
				}
				JOINT neck
				{
					OFFSET 0.000000 -0.203436 0.011130
					CHANNELS 6 Xposition Yposition Zposition Xrotation Yrotation Zrotation
					JOINT Chest.002
					{
						OFFSET 0.000000 -0.167239 -0.034927
						CHANNELS 6 Xposition Yposition Zposition Xrotation Yrotation Zrotation
						End Site
						{
							OFFSET 0.000000 -0.197672 -0.000000
						}
					}
				}
				JOINT r_shoulder
				{
					OFFSET 0.000000 -0.203436 0.011130
					CHANNELS 6 Xposition Yposition Zposition Xrotation Yrotation Zrotation
					JOINT r_arm1
					{
						OFFSET 0.201341 0.039879 -0.023968
						CHANNELS 6 Xposition Yposition Zposition Xrotation Yrotation Zrotation
						JOINT r_arm2
						{
							OFFSET 0.255826 0.019338 0.002834
							CHANNELS 6 Xposition Yposition Zposition Xrotation Yrotation Zrotation
							JOINT r_arm2.001
							{
								OFFSET 0.278303 0.000000 0.000000
								CHANNELS 6 Xposition Yposition Zposition Xrotation Yrotation Zrotation
								JOINT r_arm2.002
								{
									OFFSET 0.097545 -0.027868 -0.000000
									CHANNELS 6 Xposition Yposition Zposition Xrotation Yrotation Zrotation
									JOINT r_arm2.003
									{
										OFFSET 0.073227 0.001151 0.000000
										CHANNELS 6 Xposition Yposition Zposition Xrotation Yrotation Zrotation
										End Site
										{
											OFFSET 0.069050 0.006363 0.000000
										}
									}
								}
								JOINT r_thumb1
								{
									OFFSET 0.069959 0.025989 0.036186
									CHANNELS 6 Xposition Yposition Zposition Xrotation Yrotation Zrotation
									JOINT r_thumb2
									{
										OFFSET 0.016822 0.014415 0.020316
										CHANNELS 6 Xposition Yposition Zposition Xrotation Yrotation Zrotation
										JOINT r_thumb3
										{
											OFFSET 0.030947 0.011068 0.007269
											CHANNELS 6 Xposition Yposition Zposition Xrotation Yrotation Zrotation
											End Site
											{
												OFFSET 0.030806 0.000000 0.004416
											}
										}
									}
								}
							}
						}
					}
				}
			}
		}
	}
	JOINT l_hip
	{
		OFFSET 0.000000 -0.961858 0.006396
		CHANNELS 6 Xposition Yposition Zposition Xrotation Yrotation Zrotation
		JOINT l_leg1
		{
			OFFSET -0.093423 0.082916 -0.008190
			CHANNELS 6 Xposition Yposition Zposition Xrotation Yrotation Zrotation
			JOINT l_leg2
			{
				OFFSET 0.000000 0.363962 0.000000
				CHANNELS 6 Xposition Yposition Zposition Xrotation Yrotation Zrotation
				JOINT l_foot
				{
					OFFSET 0.000000 0.485475 0.000000
					CHANNELS 6 Xposition Yposition Zposition Xrotation Yrotation Zrotation
					End Site
					{
						OFFSET 0.012401 0.015962 0.212586
					}
				}
			}
		}
	}
	JOINT r_hip
	{
		OFFSET 0.000000 -0.961858 0.006396
		CHANNELS 6 Xposition Yposition Zposition Xrotation Yrotation Zrotation
		JOINT r_leg1
		{
			OFFSET 0.093423 0.082916 -0.008190
			CHANNELS 6 Xposition Yposition Zposition Xrotation Yrotation Zrotation
			JOINT r_leg2
			{
				OFFSET 0.000000 0.363962 0.000000
				CHANNELS 6 Xposition Yposition Zposition Xrotation Yrotation Zrotation
				JOINT r_foot
				{
					OFFSET 0.000000 0.485475 0.000000
					CHANNELS 6 Xposition Yposition Zposition Xrotation Yrotation Zrotation
					End Site
					{
						OFFSET -0.012401 0.015962 0.212586
					}
				}
			}
		}
	}
}
MOTION
Frames: 2
Frame Time: 0.041667
0.000000 0.000000 0.000000 -0.000000 0.000000 -0.000000 0.000000 -0.961858 0.006396 -0.000000 0.000000 -0.000000 0.000000 -0.238221 0.004518 -0.000000 0.000000 -0.000000 0.000000 -0.205591 -0.000153 -0.000000 0.000000 -0.000000 -0.000000 -0.203436 0.011130 -0.000000 -0.000001 -0.000000 -0.201341 0.039879 -0.023968 0.000001 -0.000001 -0.000000 -0.255826 0.019338 0.002834 0.000000 -0.000000 -0.000000 -0.278303 0.000000 -0.000000 0.000000 0.000000 0.000000 -0.097545 -0.027868 -0.000000 -0.000000 0.000000 -0.000000 -0.073227 0.001151 -0.000000 -0.000000 0.000000 -0.000001 -0.069959 0.025989 0.036186 0.000001 0.000003 -0.000001 -0.016822 0.014415 0.020316 0.000002 0.000001 0.000002 -0.030947 0.011068 0.007269 0.000002 -0.000001 0.000002 -0.000000 -0.203436 0.011130 0.000000 0.000000 -0.000000 -0.000000 -0.167239 -0.034927 0.000000 0.000000 -0.000000 -0.000000 -0.203436 0.011130 0.000001 0.000000 -0.000000 0.201341 0.039879 -0.023968 0.000000 0.000000 -0.000000 0.255826 0.019338 0.002834 -0.000000 -0.000000 0.000000 0.278303 -0.000000 -0.000000 -0.000000 0.000001 0.000000 0.097545 -0.027868 -0.000000 -0.000000 0.000001 0.000000 0.073227 0.001151 -0.000000 0.000000 0.000000 -0.000000 0.069959 0.025989 0.036186 -0.000000 0.000001 -0.000002 0.016822 0.014415 0.020316 0.000000 0.000003 -0.000001 0.030947 0.011068 0.007269 0.000001 0.000001 0.000000 -0.000000 -0.961858 0.006396 0.000001 -0.000001 0.000001 -0.093423 0.082916 -0.008190 0.000001 -0.000001 0.000001 -0.000000 0.363962 0.000000 0.000000 -0.000000 -0.000000 -0.000000 0.485475 0.000000 0.000000 -0.000000 0.000000 0.000000 -0.961858 0.006396 0.000001 0.000001 -0.000001 0.093423 0.082916 -0.008190 0.000001 0.000001 -0.000001 0.000000 0.363962 0.000000 0.000000 0.000000 0.000000 0.000000 0.485475 0.000000 0.000000 0.000000 -0.000000 
0.000000 0.288101 -0.001916 -0.000000 0.000000 -0.000000 0.000000 -0.961858 0.006396 -38.147576 11.537697 8.858242 -0.000000 -0.238221 0.004518 -0.000094 11.376885 -0.000367 -0.000000 -0.205591 -0.000153 0.000920 8.024804 -0.000395 -0.000000 -0.203436 0.011130 -2.645157 9.408883 22.414441 -0.201341 0.039879 -0.023968 45.923788 38.754982 -16.217307 -0.255826 0.019338 0.002834 1.679654 82.788539 -1.541477 -0.278303 0.000000 0.000000 0.000002 -0.000001 -0.000001 -0.097545 -0.027868 -0.000000 -0.000000 -0.000001 -0.000002 -0.073227 0.001151 0.000000 0.000000 0.000000 -0.000002 -0.069959 0.025990 0.036186 -0.000000 -0.000001 -0.000001 -0.016822 0.014415 0.020316 0.000002 -0.000001 0.000003 -0.030947 0.011068 0.007269 0.000002 -0.000001 0.000002 -0.000000 -0.203436 0.011130 -45.533743 -33.570489 -27.232804 0.000000 -0.167239 -0.034927 11.947306 -0.078207 4.413968 -0.000000 -0.203436 0.011130 -0.011141 21.985711 0.046951 0.201341 0.039879 -0.023968 -0.000003 -0.000001 0.000004 0.255826 0.019338 0.002834 -0.000001 -0.000004 -0.000004 0.278303 -0.000000 -0.000000 -0.000002 0.000004 0.000000 0.097545 -0.027868 -0.000000 0.000002 0.000006 -0.000001 0.073227 0.001151 -0.000000 0.000002 -0.000001 0.000000 0.069959 0.025990 0.036186 -0.000000 0.000001 -0.000003 0.016822 0.014415 0.020316 0.000005 0.000000 -0.000001 0.030947 0.011068 0.007269 0.000001 0.000001 0.000000 -0.000000 -0.961858 0.006396 0.000004 0.000003 -0.000000 -0.093423 0.082916 -0.008190 74.852952 -0.124040 -0.163187 -0.000000 0.363962 0.000000 -107.054035 0.001304 -0.000967 0.000000 0.485475 0.000000 26.014145 -0.388624 -1.435443 0.000000 -0.961858 0.006396 0.000004 -0.000003 -0.000000 0.093423 0.082916 -0.008190 -43.692877 0.046386 -0.116139 0.000000 0.363962 0.000000 -33.617310 -0.000168 0.000556 -0.000000 0.485475 0.000000 -0.000002 0.000000 -0.000000 
